<svg width="28" height="28" viewBox="0 0 28 28" fill="none" xmlns="http://www.w3.org/2000/svg">
<path d="M21 9.33337C21 7.47686 20.2625 5.69638 18.9497 4.38363C17.637 3.07087 15.8565 2.33337 14 2.33337C12.1435 2.33337 10.363 3.07087 9.05025 4.38363C7.7375 5.69638 7 7.47686 7 9.33337C7 17.5 3.5 19.8334 3.5 19.8334H24.5C24.5 19.8334 21 17.5 21 9.33337Z" stroke="white" stroke-width="2.33333" stroke-linecap="round" stroke-linejoin="round"/>
<path d="M16.0181 24.5C15.813 24.8536 15.5186 25.1471 15.1644 25.3511C14.8102 25.5551 14.4086 25.6625 13.9998 25.6625C13.591 25.6625 13.1894 25.5551 12.8352 25.3511C12.481 25.1471 12.1866 24.8536 11.9814 24.5" stroke="white" stroke-width="2.33333" stroke-linecap="round" stroke-linejoin="round"/>
</svg>
