<svg width="32" height="25" viewBox="0 0 32 25" fill="none" xmlns="http://www.w3.org/2000/svg">
<path d="M5.81755 24.8758V23.2211C5.81755 22.5868 5.43338 22.1731 4.77481 22.1731C4.44552 22.1731 4.08879 22.2834 3.84183 22.642C3.64974 22.3386 3.37534 22.1731 2.96373 22.1731C2.68932 22.1731 2.41492 22.2559 2.19539 22.5592V22.2283H1.61914V24.8758H2.19539V23.4142C2.19539 22.9453 2.44236 22.7247 2.82653 22.7247C3.2107 22.7247 3.40278 22.9729 3.40278 23.4142V24.8758H3.97903V23.4142C3.97903 22.9453 4.25344 22.7247 4.61017 22.7247C4.99433 22.7247 5.18642 22.9729 5.18642 23.4142V24.8758H5.81755ZM14.3516 22.2283H13.4186V21.4285H12.8423V22.2283H12.321V22.7523H12.8423V23.9657C12.8423 24.5725 13.0893 24.931 13.7479 24.931C13.9948 24.931 14.2693 24.8482 14.4613 24.7379L14.2967 24.2415C14.1321 24.3518 13.94 24.3794 13.8028 24.3794C13.5284 24.3794 13.4186 24.2139 13.4186 23.9381V22.7523H14.3516V22.2283ZM19.236 22.1731C18.9067 22.1731 18.6872 22.3386 18.55 22.5592V22.2283H17.9737V24.8758H18.55V23.3866C18.55 22.9453 18.7421 22.6971 19.0988 22.6971C19.2086 22.6971 19.3458 22.7247 19.4555 22.7523L19.6202 22.2007C19.5104 22.1731 19.3458 22.1731 19.236 22.1731ZM11.8545 22.4489C11.5801 22.2559 11.1959 22.1731 10.7843 22.1731C10.1257 22.1731 9.68667 22.5041 9.68667 23.0281C9.68667 23.4693 10.016 23.7175 10.5922 23.8003L10.8666 23.8278C11.1685 23.883 11.3331 23.9657 11.3331 24.1036C11.3331 24.2967 11.1136 24.4346 10.7294 24.4346C10.3452 24.4346 10.0434 24.2967 9.85132 24.1588L9.57691 24.6C9.87876 24.8207 10.2904 24.931 10.702 24.931C11.4703 24.931 11.9094 24.5725 11.9094 24.076C11.9094 23.6072 11.5526 23.359 11.0038 23.2763L10.7294 23.2487C10.4825 23.2211 10.2904 23.1659 10.2904 23.0005C10.2904 22.8074 10.4825 22.6971 10.7843 22.6971C11.1136 22.6971 11.4429 22.835 11.6075 22.9177L11.8545 22.4489ZM27.1663 22.1731C26.837 22.1731 26.6175 22.3386 26.4803 22.5592V22.2283H25.9041V24.8758H26.4803V23.3866C26.4803 22.9453 26.6724 22.6971 27.0291 22.6971C27.1389 22.6971 27.2761 22.7247 27.3859 22.7523L27.5505 22.2007C27.4407 22.1731 27.2761 22.1731 27.1663 22.1731ZM19.8123 23.552C19.8123 24.3518 20.3611 24.931 21.2117 24.931C21.5959 24.931 21.8703 24.8482 22.1447 24.6276L21.8703 24.1588C21.6508 24.3242 21.4312 24.407 21.1843 24.407C20.7178 24.407 20.3885 24.076 20.3885 23.552C20.3885 23.0556 20.7178 22.7247 21.1843 22.6971C21.4312 22.6971 21.6508 22.7798 21.8703 22.9453L22.1447 22.4765C21.8703 22.2559 21.5959 22.1731 21.2117 22.1731C20.3611 22.1731 19.8123 22.7523 19.8123 23.552ZM25.1357 23.552V22.2283H24.5595V22.5592C24.3674 22.311 24.093 22.1731 23.7363 22.1731C22.9954 22.1731 22.4191 22.7523 22.4191 23.552C22.4191 24.3518 22.9954 24.931 23.7363 24.931C24.1204 24.931 24.3948 24.7931 24.5595 24.5449V24.8758H25.1357V23.552ZM23.0228 23.552C23.0228 23.0832 23.3246 22.6971 23.8186 22.6971C24.2851 22.6971 24.6144 23.0556 24.6144 23.552C24.6144 24.0209 24.2851 24.407 23.8186 24.407C23.3246 24.3794 23.0228 24.0209 23.0228 23.552ZM16.1352 22.1731C15.3669 22.1731 14.8181 22.7247 14.8181 23.552C14.8181 24.3794 15.3669 24.931 16.1627 24.931C16.5468 24.931 16.931 24.8207 17.2328 24.5725L16.9584 24.1588C16.7389 24.3242 16.4645 24.4346 16.1901 24.4346C15.8334 24.4346 15.4766 24.2691 15.3943 23.8003H17.3426V23.5796C17.37 22.7247 16.8761 22.1731 16.1352 22.1731ZM16.1352 22.6695C16.4919 22.6695 16.7389 22.8902 16.7938 23.3038H15.4218C15.4766 22.9453 15.7236 22.6695 16.1352 22.6695ZM30.4318 23.552V21.1803H29.8555V22.5592C29.6634 22.311 29.389 22.1731 29.0323 22.1731C28.2914 22.1731 27.7151 22.7523 27.7151 23.552C27.7151 24.3518 28.2914 24.931 29.0323 24.931C29.4165 24.931 29.6909 24.7931 29.8555 24.5449V24.8758H30.4318V23.552ZM28.3188 23.552C28.3188 23.0832 28.6207 22.6971 29.1146 22.6971C29.5811 22.6971 29.9104 23.0556 29.9104 23.552C29.9104 24.0209 29.5811 24.407 29.1146 24.407C28.6207 24.3794 28.3188 24.0209 28.3188 23.552ZM9.05554 23.552V22.2283H8.47929V22.5592C8.2872 22.311 8.0128 22.1731 7.65607 22.1731C6.91518 22.1731 6.33892 22.7523 6.33892 23.552C6.33892 24.3518 6.91518 24.931 7.65607 24.931C8.04024 24.931 8.31465 24.7931 8.47929 24.5449V24.8758H9.05554V23.552ZM6.91517 23.552C6.91517 23.0832 7.21702 22.6971 7.71095 22.6971C8.17744 22.6971 8.50673 23.0556 8.50673 23.552C8.50673 24.0209 8.17744 24.407 7.71095 24.407C7.21702 24.3794 6.91517 24.0209 6.91517 23.552Z" fill="black"/>
<path d="M20.3059 2.12366H11.6621V17.7331H20.3059V2.12366Z" fill="#FF5F00"/>
<path d="M12.2111 9.92826C12.2111 6.75673 13.6929 3.94372 15.9704 2.12354C14.2965 0.799776 12.1836 0 9.87861 0C4.41794 0 0 4.44014 0 9.92826C0 15.4164 4.41794 19.8565 9.87861 19.8565C12.1836 19.8565 14.2965 19.0567 15.9704 17.733C13.6929 15.9404 12.2111 13.0998 12.2111 9.92826Z" fill="#EB001B"/>
<path d="M31.9685 9.92826C31.9685 15.4164 27.5505 19.8565 22.0899 19.8565C19.7849 19.8565 17.6719 19.0567 15.998 17.733C18.3031 15.9128 19.7574 13.0998 19.7574 9.92826C19.7574 6.75673 18.2756 3.94372 15.998 2.12354C17.6719 0.799776 19.7849 0 22.0899 0C27.5505 0 31.9685 4.46772 31.9685 9.92826Z" fill="#F79E1B"/>
</svg>
